<?xml version="1.0" encoding="UTF-8" standalone="no"?>
<svg
   xmlns:dc="http://purl.org/dc/elements/1.1/"
   xmlns:cc="http://creativecommons.org/ns#"
   xmlns:rdf="http://www.w3.org/1999/02/22-rdf-syntax-ns#"
   xmlns:svg="http://www.w3.org/2000/svg"
   xmlns="http://www.w3.org/2000/svg"
   version="1.1"
   id="svg3855"
   viewBox="0 0 545.08988 234.35022"
   height="66.13884mm"
   width="153.83649mm">
  <defs
     id="defs3857" />
  <metadata
     id="metadata3860">
    <rdf:RDF>
      <cc:Work
         rdf:about="">
        <dc:format>image/svg+xml</dc:format>
        <dc:type
           rdf:resource="http://purl.org/dc/dcmitype/StillImage" />
        <dc:title></dc:title>
      </cc:Work>
    </rdf:RDF>
  </metadata>
  <g
     transform="translate(-1465.3736,-610.46875)"
     id="layer1">
    <path
       id="path3863"
       d="m 1609.9922,610.46875 c 1.0338,0.13133 3.8389,0.76108 7.2422,1.80859 3.6373,1.11958 7.8363,2.58487 11.3027,4.00977 3.886,1.59726 8.5377,3.85548 12.168,5.81836 1.8151,0.98144 3.3837,1.89405 4.4414,2.58594 0.3639,0.23802 0.559,0.39396 0.7793,0.56054 -0.1176,0.56825 -0.2906,1.36748 -0.5039,2.33399 -0.4288,1.94262 -1.0229,4.55694 -1.6758,7.36718 -0.6547,2.81758 -1.2495,5.39415 -1.6816,7.27735 -0.2161,0.9416 -0.3918,1.70963 -0.5137,2.25 -0.061,0.27018 -0.109,0.48313 -0.1426,0.63672 -0.017,0.0768 -0.03,0.13769 -0.041,0.1914 -0.01,0.0269 -0.01,0.0498 -0.016,0.084 0,0.0171 -0.01,0.0364 -0.014,0.0723 -0.01,0.0359 -0.023,0.30356 -0.023,0.30469 0,5.7e-4 0.02,0.29831 0.043,0.40625 0.023,0.10794 0.051,0.1935 0.076,0.26367 0.051,0.14036 0.096,0.22658 0.1348,0.29493 0.077,0.13668 0.1289,0.20102 0.1699,0.2539 0.082,0.10576 0.1277,0.15113 0.1719,0.19727 0.088,0.0923 0.1583,0.15908 0.2421,0.23633 0.1678,0.15449 0.3757,0.33418 0.627,0.54882 0.5026,0.42928 1.1762,0.98639 1.918,1.58399 2.4654,1.98618 4.7148,4.07904 6.9394,6.21484 l -10.5097,10.50977 c -12.2213,-11.57277 -27.7933,-19.51054 -44.7598,-22.41407 -2.7186,-0.4652 -7.2612,-0.70157 -11.8008,-0.79492 v -15.15234 c 1.5023,0.0328 2.9145,0.0559 4.9375,0.19141 1.8648,0.12487 3.6157,0.26044 4.9199,0.375 0.6521,0.0573 1.1935,0.11016 1.5703,0.15234 0.1884,0.0211 0.338,0.0384 0.4219,0.0508 0.08,0.0118 0.2143,0.0856 -0.1719,-0.0606 0.8515,0.32323 1.4076,0.0296 1.6758,-0.11133 0.269,-0.14129 0.3965,-0.25676 0.5137,-0.36132 0.2344,-0.20912 0.3917,-0.39476 0.5762,-0.61914 0.369,-0.44878 0.7946,-1.03458 1.3261,-1.80664 1.0631,-1.54413 2.5207,-3.80507 4.3594,-6.76172 1.5477,-2.4888 2.9834,-4.7942 4.0488,-6.50196 0.5157,-0.82647 0.9355,-1.49671 1.2481,-1.99609 z"
       style="color:#000000;font-style:normal;font-variant:normal;font-weight:normal;font-stretch:normal;font-size:medium;line-height:normal;font-family:sans-serif;font-variant-ligatures:normal;font-variant-position:normal;font-variant-caps:normal;font-variant-numeric:normal;font-variant-alternates:normal;font-feature-settings:normal;text-indent:0;text-align:start;text-decoration:none;text-decoration-line:none;text-decoration-style:solid;text-decoration-color:#000000;letter-spacing:normal;word-spacing:normal;text-transform:none;writing-mode:lr-tb;direction:ltr;text-orientation:mixed;dominant-baseline:auto;baseline-shift:baseline;text-anchor:start;white-space:normal;shape-padding:0;clip-rule:nonzero;display:inline;overflow:visible;visibility:visible;opacity:1;isolation:auto;mix-blend-mode:normal;color-interpolation:sRGB;color-interpolation-filters:linearRGB;solid-color:#000000;solid-opacity:1;vector-effect:none;fill:#ff0000;fill-opacity:1;fill-rule:nonzero;stroke:none;stroke-width:0.35433069;stroke-linecap:butt;stroke-linejoin:miter;stroke-miterlimit:4;stroke-dasharray:none;stroke-dashoffset:0;stroke-opacity:1;color-rendering:auto;image-rendering:auto;shape-rendering:auto;text-rendering:auto;enable-background:accumulate" />
    <flowRoot
       transform="matrix(0.93749999,0,0,0.93749999,194.24879,920.39249)"
       style="font-style:normal;font-weight:normal;font-size:40px;line-height:1.25;font-family:sans-serif;letter-spacing:0px;word-spacing:0px;fill:#000000;fill-opacity:1;stroke:none"
       id="flowRoot4607"
       xml:space="preserve"><flowRegion
         id="flowRegion4609"><rect
           y="-56.072392"
           x="-1103.0865"
           height="141.42136"
           width="349.51279"
           id="rect4611" /></flowRegion><flowPara
         id="flowPara4613" /></flowRoot>    <path
       id="path3861"
       d="m 1555.0953,610.50622 c 0.3089,0.48563 0.7166,1.13077 1.2232,1.93909 1.0637,1.69724 2.4976,4.00119 4.043,6.49841 2.6349,4.25818 4.0363,6.51156 5.0134,7.83874 0.4885,0.6636 0.8481,1.13096 1.4703,1.54358 0.6222,0.41263 1.6624,0.49759 2.1094,0.40833 -0.2093,0.0418 1.0363,-0.12135 2.3968,-0.23804 1.3606,-0.11668 3.1202,-0.25219 4.9402,-0.37903 0.9345,-0.0651 1.6386,-0.0864 2.4262,-0.12451 v 15.08972 c -1.9269,0.0388 -3.9152,0.0672 -5.2844,0.21607 -19.3678,2.10578 -37.6506,11.01744 -51.2842,24.99389 -6.9255,7.1001 -11.4406,13.48291 -15.4962,21.91956 -6.2718,13.04706 -8.605,23.18144 -8.6152,37.39929 -0.01,14.19102 2.4478,24.76901 8.7323,37.64648 v 0 c 12.354,25.31934 36.5318,42.56349 65.0519,46.4447 2.0963,0.2853 5.5265,0.37759 8.8513,0.43946 v 15.14099 c -3.6163,-0.0806 -7.3914,-0.27768 -10.719,-0.76539 v 0 l -2.926,-0.43029 -6.5131,10.44067 c -2.2561,3.61715 -3.7539,5.94568 -4.7095,7.30408 -0.3629,0.51585 -0.567,0.75585 -0.7599,0.98694 -0.3443,-0.0653 -0.78,-0.12919 -1.7559,-0.38453 -1.3088,-0.34242 -2.9833,-0.82848 -4.7901,-1.3861 -3.6136,-1.11523 -7.7703,-2.52451 -10.6732,-3.6676 -3.7298,-1.46885 -8.6434,-3.82525 -12.5629,-5.92164 -1.9597,-1.04819 -3.6789,-2.03711 -4.8559,-2.79419 -0.4401,-0.28307 -0.7034,-0.48295 -0.9595,-0.67565 0.1104,-0.53554 0.2636,-1.255 0.4523,-2.12952 0.3913,-1.81367 0.9194,-4.21494 1.463,-6.65588 1.0872,-4.88189 2.3117,-10.18635 2.4609,-10.719 0.3081,-1.09944 -0.1261,-1.60212 -0.3552,-1.96472 -0.229,-0.36259 -0.4763,-0.64259 -0.7709,-0.94849 -0.5892,-0.6118 -1.3749,-1.29205 -2.3987,-2.10754 -5.5599,-4.42883 -11.9268,-10.90534 -16.7962,-17.09656 v 0 l -1.6864,-2.14233 -11.8268,2.81433 -9.4281,2.24304 c -0.3168,-0.39286 -1.8799,-2.90469 -3.3857,-5.65796 -1.5194,-2.7783 -3.1512,-5.96945 -4.1857,-8.25622 -2.4739,-5.46722 -5.0255,-12.69519 -6.6541,-18.86535 v -0.002 l -0.8679,-3.29224 0.6921,-0.43945 c 1.0067,-0.63865 5.2701,-3.29507 9.4098,-5.85938 l 8.6133,-5.33568 -0.4688,-3.34534 c -1.0331,-7.35865 -1.0773,-15.35992 -0.108,-25.05067 l 0.3406,-3.40209 -10.3894,-6.46912 c -2.5655,-1.59697 -4.8975,-3.07532 -6.579,-4.16564 -0.6847,-0.44399 -1.1713,-0.76956 -1.6058,-1.06201 0.043,-0.16506 0.068,-0.26856 0.119,-0.46143 0.2676,-1.01955 0.6374,-2.40232 1.0455,-3.89099 1.7176,-6.26411 4.4095,-13.66075 6.8701,-18.90015 0.8924,-1.90014 2.4082,-4.80071 3.8215,-7.36816 1.3628,-2.47592 2.7097,-4.68478 3.0358,-5.14161 l 9.007,2.06543 c 2.8247,0.64848 5.4571,1.2384 7.4304,1.66809 0.9867,0.21485 1.8082,0.38946 2.4133,0.5127 0.3026,0.0616 0.5488,0.11038 0.7471,0.14648 0.1984,0.0361 0.1016,0.0754 0.6574,0.0806 0.7349,0.007 0.9536,-0.20379 1.1609,-0.3241 0.2072,-0.1203 0.352,-0.23074 0.4962,-0.3479 0.2884,-0.23431 0.5603,-0.49687 0.8587,-0.80566 0.597,-0.61758 1.2766,-1.41094 1.9574,-2.29248 2.7559,-3.56846 11.3472,-12.15986 14.9158,-14.91577 0.8697,-0.67163 1.6552,-1.32953 2.2614,-1.88782 0.303,-0.27915 0.559,-0.52753 0.7855,-0.78186 0.1132,-0.12716 0.2179,-0.2505 0.3406,-0.43396 0.1226,-0.18346 0.39,-0.2997 0.39,-1.22131 0,-0.36603 -0.025,-0.33456 -0.039,-0.41565 -0.013,-0.0811 -0.028,-0.16022 -0.046,-0.25269 -0.036,-0.18493 -0.085,-0.41752 -0.1464,-0.70495 -0.1239,-0.57487 -0.2996,-1.36198 -0.5164,-2.31263 -0.4335,-1.90129 -1.0308,-4.45474 -1.6864,-7.20703 -0.6529,-2.74117 -1.2467,-5.29706 -1.6754,-7.1997 -0.2128,-0.9445 -0.3839,-1.725 -0.4999,-2.2815 0.2358,-0.17928 0.464,-0.35772 0.8643,-0.61889 1.1071,-0.72233 2.7371,-1.67088 4.6161,-2.68616 3.7578,-2.03057 8.5384,-4.34769 12.42,-5.92713 3.4186,-1.39104 7.8465,-2.90131 11.6034,-4.02832 1.8784,-0.5635 3.5935,-1.03357 4.9145,-1.34399 0.9509,-0.22343 1.2903,-0.24595 1.604,-0.2948 z m -74.7235,53.6206 v 0 l -0.01,0.009 c 5e-4,-5.7e-4 0.01,-0.009 0.01,-0.009 z"
       style="color:#000000;font-style:normal;font-variant:normal;font-weight:normal;font-stretch:normal;font-size:medium;line-height:normal;font-family:sans-serif;font-variant-ligatures:normal;font-variant-position:normal;font-variant-caps:normal;font-variant-numeric:normal;font-variant-alternates:normal;font-feature-settings:normal;text-indent:0;text-align:start;text-decoration:none;text-decoration-line:none;text-decoration-style:solid;text-decoration-color:#000000;letter-spacing:normal;word-spacing:normal;text-transform:none;writing-mode:lr-tb;direction:ltr;text-orientation:mixed;dominant-baseline:auto;baseline-shift:baseline;text-anchor:start;white-space:normal;shape-padding:0;clip-rule:nonzero;display:inline;overflow:visible;visibility:visible;opacity:1;isolation:auto;mix-blend-mode:normal;color-interpolation:sRGB;color-interpolation-filters:linearRGB;solid-color:#000000;solid-opacity:1;vector-effect:none;fill:#000000;fill-opacity:1;fill-rule:nonzero;stroke:none;stroke-width:0.35433069;stroke-linecap:butt;stroke-linejoin:miter;stroke-miterlimit:4;stroke-dasharray:none;stroke-dashoffset:0;stroke-opacity:1;color-rendering:auto;image-rendering:auto;shape-rendering:auto;text-rendering:auto;enable-background:accumulate" />
    <path
       id="circle3865"
       transform="matrix(0.93750002,0,0,0.93750002,157.81386,78.374468)"
       d="m 1519.6973,606.50586 c -47.501,0 -86.0469,38.54965 -86.0469,86.05078 0,46.83399 37.4707,84.96162 84.0508,86.02344 v -3.7793 c -44.5352,-1.05872 -80.2715,-37.45281 -80.2715,-82.24414 0,-45.45852 36.809,-82.27148 82.2676,-82.27148 21.979,0 41.9085,8.63547 56.6601,22.66406 l 2.6563,-2.65625 c -15.4416,-14.71872 -36.3144,-23.78711 -59.3164,-23.78711 z"
       style="color:#000000;font-style:normal;font-variant:normal;font-weight:normal;font-stretch:normal;font-size:medium;line-height:normal;font-family:sans-serif;font-variant-ligatures:normal;font-variant-position:normal;font-variant-caps:normal;font-variant-numeric:normal;font-variant-alternates:normal;font-feature-settings:normal;text-indent:0;text-align:start;text-decoration:none;text-decoration-line:none;text-decoration-style:solid;text-decoration-color:#000000;letter-spacing:normal;word-spacing:normal;text-transform:none;writing-mode:lr-tb;direction:ltr;text-orientation:mixed;dominant-baseline:auto;baseline-shift:baseline;text-anchor:start;white-space:normal;shape-padding:0;clip-rule:nonzero;display:inline;overflow:visible;visibility:visible;opacity:1;isolation:auto;mix-blend-mode:normal;color-interpolation:sRGB;color-interpolation-filters:linearRGB;solid-color:#000000;solid-opacity:1;vector-effect:none;fill:#000000;fill-opacity:1;fill-rule:nonzero;stroke:none;stroke-width:3.77952743;stroke-linecap:butt;stroke-linejoin:miter;stroke-miterlimit:4;stroke-dasharray:none;stroke-dashoffset:0;stroke-opacity:1;color-rendering:auto;image-rendering:auto;shape-rendering:auto;text-rendering:auto;enable-background:accumulate" />
    <g
       id="text3881"
       style="font-style:normal;font-variant:normal;font-weight:600;font-stretch:normal;font-size:99.65886688px;line-height:1.25;font-family:'Open Sans';-inkscape-font-specification:'Open Sans Semi-Bold';letter-spacing:-0.04982942px;word-spacing:0px;fill:#000000;fill-opacity:1;stroke:none;stroke-width:3.89763784;stroke-miterlimit:4;stroke-dasharray:none"
       aria-label="CRC">
      <path
         id="path896"
         style="font-style:normal;font-variant:normal;font-weight:600;font-stretch:normal;font-family:'Open Sans';-inkscape-font-specification:'Open Sans Semi-Bold';fill:#000000;stroke:none;stroke-width:3.89763784;stroke-miterlimit:4;stroke-dasharray:none"
         d="m 1576.1549,701.05168 q -10.0243,0 -15.7663,7.10459 -5.7421,7.10459 -5.7421,19.61061 0,13.08995 5.4987,19.80525 5.5475,6.71529 16.0097,6.71529 4.5255,0 8.7591,-0.8759 4.2335,-0.92457 8.8077,-2.33576 v 9.97562 q -8.3698,3.163 -18.978,3.163 -15.6203,0 -23.9901,-9.44034 -8.3698,-9.489 -8.3698,-27.10449 0,-11.09483 4.0389,-19.41596 4.0876,-8.32112 11.7761,-12.74933 7.6885,-4.4282 18.0534,-4.4282 10.9002,0 20.1459,4.57419 l -4.1849,9.68365 q -3.6009,-1.70316 -7.6399,-2.96836 -3.9902,-1.31386 -8.4184,-1.31386 z" />
      <path
         id="path898"
         style="font-style:normal;font-variant:normal;font-weight:600;font-stretch:normal;font-family:'Open Sans';-inkscape-font-specification:'Open Sans Semi-Bold';fill:#000000;stroke:none;stroke-width:3.89763784;stroke-miterlimit:4;stroke-dasharray:none"
         d="m 1620.7277,725.18781 h 8.0778 q 8.1265,0 11.7761,-3.01701 3.6496,-3.01702 3.6496,-8.95373 0,-6.03403 -3.9415,-8.66176 -3.9416,-2.62772 -11.8735,-2.62772 h -7.6885 z m 0,9.63499 v 28.41835 h -11.6301 v -71.1432 h 20.0972 q 13.7712,0 20.3892,5.15813 6.618,5.15812 6.618,15.5717 0,13.2846 -13.8199,18.92934 l 20.0972,31.48403 h -13.2359 l -17.0316,-28.41835 z" />
      <path
         id="path900"
         style="font-style:normal;font-variant:normal;font-weight:600;font-stretch:normal;font-family:'Open Sans';-inkscape-font-specification:'Open Sans Semi-Bold';fill:#000000;stroke:none;stroke-width:3.89763784;stroke-miterlimit:4;stroke-dasharray:none"
         d="m 1702.9646,701.05168 q -10.0243,0 -15.7664,7.10459 -5.742,7.10459 -5.742,19.61061 0,13.08995 5.4987,19.80525 5.5474,6.71529 16.0097,6.71529 4.5255,0 8.7591,-0.8759 4.2335,-0.92457 8.8077,-2.33576 v 9.97562 q -8.3698,3.163 -18.978,3.163 -15.6204,0 -23.9902,-9.44034 -8.3697,-9.489 -8.3697,-27.10449 0,-11.09483 4.0389,-19.41596 4.0875,-8.32112 11.7761,-12.74933 7.6885,-4.4282 18.0534,-4.4282 10.9002,0 20.1459,4.57419 l -4.1849,9.68365 q -3.601,-1.70316 -7.6399,-2.96836 -3.9902,-1.31386 -8.4184,-1.31386 z" />
    </g>
    <g
       id="text3885"
       style="font-style:normal;font-variant:normal;font-weight:900;font-stretch:normal;font-size:47.04130554px;line-height:1.25;font-family:Arial;-inkscape-font-specification:'Arial Heavy';letter-spacing:-0.02352065px;word-spacing:0px;fill:#000000;fill-opacity:1;stroke:none;stroke-width:0.9375"
       aria-label="ConsultRisk Cluster">
      <path
         id="path859"
         style="font-style:normal;font-variant:normal;font-weight:300;font-stretch:normal;font-family:'Open Sans';-inkscape-font-specification:'Open Sans Light';fill:#000000;stroke-width:0.9375"
         d="m 1625.116,776.20638 q -6.3166,0 -9.9457,4.04261 -3.6292,4.04262 -3.6292,11.07125 0,7.18942 3.4224,11.16312 3.4225,3.9737 9.785,3.9737 4.2264,0 7.7636,-1.07956 v 2.06725 q -3.3305,1.17144 -8.3149,1.17144 -7.0745,0 -11.1401,-4.57091 -4.0656,-4.57091 -4.0656,-12.77098 0,-5.12217 1.9294,-9.02697 1.9524,-3.9048 5.5816,-6.01798 3.6521,-2.13615 8.4757,-2.13615 4.9154,0 8.7973,1.83755 l -0.9418,2.11318 q -3.6751,-1.83755 -7.7177,-1.83755 z" />
      <path
         id="path861"
         style="font-style:normal;font-variant:normal;font-weight:300;font-stretch:normal;font-family:'Open Sans';-inkscape-font-specification:'Open Sans Light';fill:#000000;stroke-width:0.9375"
         d="m 1660.0519,795.63848 q 0,6.10986 -2.9631,9.55527 -2.963,3.42244 -8.1771,3.42244 -3.2846,0 -5.7882,-1.58489 -2.5037,-1.58489 -3.8359,-4.54794 -1.3323,-2.96305 -1.3323,-6.84488 0,-6.10985 2.9631,-9.50932 2.963,-3.42244 8.1312,-3.42244 5.1451,0 8.0622,3.46838 2.9401,3.4454 2.9401,9.46338 z m -19.7077,0 q 0,5.14515 2.251,8.03929 2.2739,2.87117 6.4084,2.87117 4.1345,0 6.3855,-2.87117 2.274,-2.89414 2.274,-8.03929 0,-5.16811 -2.297,-8.01631 -2.2739,-2.84821 -6.4084,-2.84821 -4.1345,0 -6.3855,2.84821 -2.228,2.82523 -2.228,8.01631 z" />
      <path
         id="path863"
         style="font-style:normal;font-variant:normal;font-weight:300;font-stretch:normal;font-family:'Open Sans';-inkscape-font-specification:'Open Sans Light';fill:#000000;stroke-width:0.9375"
         d="m 1684.353,808.1568 v -16.19342 q 0,-3.76698 -1.5849,-5.46671 -1.5849,-1.72271 -4.9155,-1.72271 -4.479,0 -6.5692,2.27397 -2.0673,2.251 -2.0673,7.32724 v 13.78163 h -2.2739 v -24.96772 h 1.9294 l 0.4364,3.42243 h 0.1378 q 2.4348,-3.90479 8.6595,-3.90479 8.4987,0 8.4987,9.11884 v 16.33124 z" />
      <path
         id="path865"
         style="font-style:normal;font-variant:normal;font-weight:300;font-stretch:normal;font-family:'Open Sans';-inkscape-font-specification:'Open Sans Light';fill:#000000;stroke-width:0.9375"
         d="m 1710.147,801.65646 q 0,3.35353 -2.5496,5.16811 -2.5496,1.79162 -7.2353,1.79162 -5.0074,0 -7.9474,-1.53895 v -2.45773 q 3.7669,1.88349 7.9474,1.88349 3.698,0 5.6045,-1.21737 1.9294,-1.24035 1.9294,-3.28463 0,-1.88349 -1.5389,-3.16977 -1.516,-1.28629 -5.0074,-2.52663 -3.744,-1.3552 -5.2599,-2.31991 -1.516,-0.98769 -2.297,-2.20506 -0.758,-1.24035 -0.758,-3.00899 0,-2.80227 2.3429,-4.4331 2.3659,-1.63082 6.5922,-1.63082 4.0426,0 7.6718,1.51598 l -0.8499,2.06724 q -3.6751,-1.51598 -6.8219,-1.51598 -3.0549,0 -4.8465,1.01066 -1.7916,1.01065 -1.7916,2.80226 0,1.9524 1.3781,3.12384 1.4012,1.17144 5.4438,2.61851 3.3765,1.21738 4.9154,2.20506 1.539,0.96471 2.297,2.20506 0.7809,1.24035 0.7809,2.91711 z" />
      <path
         id="path867"
         style="font-style:normal;font-variant:normal;font-weight:300;font-stretch:normal;font-family:'Open Sans';-inkscape-font-specification:'Open Sans Light';fill:#000000;stroke-width:0.9375"
         d="m 1718.5762,783.18908 v 16.17044 q 0,3.76698 1.5849,5.48969 1.5849,1.69973 4.9155,1.69973 4.456,0 6.5462,-2.251 2.1132,-2.251 2.1132,-7.32723 v -13.78163 h 2.251 v 24.96772 h -1.9294 l -0.4134,-3.44541 h -0.1379 q -2.4347,3.9048 -8.6594,3.9048 -8.5217,0 -8.5217,-9.11885 v -16.30826 z" />
      <path
         id="path869"
         style="font-style:normal;font-variant:normal;font-weight:300;font-stretch:normal;font-family:'Open Sans';-inkscape-font-specification:'Open Sans Light';fill:#000000;stroke-width:0.9375"
         d="m 1746.5983,808.1568 h -2.2739 v -35.74037 h 2.2739 z" />
      <path
         id="path871"
         style="font-style:normal;font-variant:normal;font-weight:300;font-stretch:normal;font-family:'Open Sans';-inkscape-font-specification:'Open Sans Light';fill:#000000;stroke-width:0.9375"
         d="m 1761.5509,806.59488 q 2.1591,0 3.7669,-0.36751 v 1.83755 q -1.6538,0.55127 -3.8129,0.55127 -3.3076,0 -4.8925,-1.76865 -1.5619,-1.76864 -1.5619,-5.55859 v -16.12451 h -3.6981 v -1.33222 l 3.6981,-1.03362 1.1485,-5.65047 h 1.1714 v 6.04095 h 7.3273 v 1.97536 h -7.3273 v 15.80294 q 0,2.87117 1.0107,4.24934 1.0106,1.37816 3.1698,1.37816 z" />
      <path
         id="path873"
         style="fill:#ff0000"
         d="m 1773.6552,793.5253 v 14.6315 h -2.3429 v -33.58125 h 7.9933 q 6.2477,0 9.2337,2.31991 2.9861,2.29694 2.9861,6.93676 0,3.3765 -1.7917,5.69641 -1.7686,2.3199 -5.3978,3.33056 l 9.1189,15.29761 h -2.8023 l -8.6594,-14.6315 z m 0,-2.02131 h 6.4084 q 4.2494,0 6.5922,-1.88349 2.3429,-1.90646 2.3429,-5.60453 0,-3.83588 -2.2969,-5.58156 -2.297,-1.74567 -7.488,-1.74567 h -5.5586 z" />
      <path
         id="path875"
         style="fill:#ff0000"
         d="m 1800.9193,808.1568 h -2.274 v -24.96772 h 2.274 z m -2.5956,-31.90448 q 0,-2.20506 1.4471,-2.20506 0.7121,0 1.1025,0.57423 0.4135,0.57424 0.4135,1.63083 0,1.03362 -0.4135,1.63083 -0.3904,0.5972 -1.1025,0.5972 -1.4471,0 -1.4471,-2.22803 z" />
      <path
         id="path877"
         style="fill:#ff0000"
         d="m 1824.761,801.65646 q 0,3.35353 -2.5496,5.16811 -2.5496,1.79162 -7.2354,1.79162 -5.0073,0 -7.9474,-1.53895 v -2.45773 q 3.767,1.88349 7.9474,1.88349 3.6981,0 5.6045,-1.21737 1.9295,-1.24035 1.9295,-3.28463 0,-1.88349 -1.539,-3.16977 -1.516,-1.28629 -5.0073,-2.52663 -3.744,-1.3552 -5.26,-2.31991 -1.516,-0.98769 -2.2969,-2.20506 -0.758,-1.24035 -0.758,-3.00899 0,-2.80227 2.3428,-4.4331 2.3659,-1.63082 6.5923,-1.63082 4.0426,0 7.6717,1.51598 l -0.8498,2.06724 q -3.6751,-1.51598 -6.8219,-1.51598 -3.055,0 -4.8466,1.01066 -1.7916,1.01065 -1.7916,2.80226 0,1.9524 1.3782,3.12384 1.4011,1.17144 5.4437,2.61851 3.3765,1.21738 4.9155,2.20506 1.5389,0.96471 2.2969,2.20506 0.781,1.24035 0.781,2.91711 z" />
      <path
         id="path879"
         style="fill:#ff0000"
         d="m 1833.4428,797.2004 12.748,-14.01132 h 2.7564 l -9.8309,10.65779 10.6807,14.30993 h -2.7333 l -9.4864,-12.61019 -4.0885,3.72104 v 8.88915 h -2.274 v -35.74037 h 2.274 v 17.91612 l -0.1608,6.86785 z" />
      <path
         id="path881"
         style="font-style:normal;font-variant:normal;font-weight:300;font-stretch:normal;font-family:'Open Sans';-inkscape-font-specification:'Open Sans Light';fill:#000000;stroke-width:0.9375"
         d="m 1881.0802,776.20638 q -6.3165,0 -9.9457,4.04261 -3.6292,4.04262 -3.6292,11.07125 0,7.18942 3.4225,11.16312 3.4224,3.9737 9.7849,3.9737 4.2264,0 7.7637,-1.07956 v 2.06725 q -3.3306,1.17144 -8.3149,1.17144 -7.0746,0 -11.1402,-4.57091 -4.0656,-4.57091 -4.0656,-12.77098 0,-5.12217 1.9295,-9.02697 1.9524,-3.9048 5.5815,-6.01798 3.6521,-2.13615 8.4757,-2.13615 4.9155,0 8.7973,1.83755 l -0.9417,2.11318 q -3.6752,-1.83755 -7.7178,-1.83755 z" />
      <path
         id="path883"
         style="font-style:normal;font-variant:normal;font-weight:300;font-stretch:normal;font-family:'Open Sans';-inkscape-font-specification:'Open Sans Light';fill:#000000;stroke-width:0.9375"
         d="m 1897.6406,808.1568 h -2.274 v -35.74037 h 2.274 z" />
      <path
         id="path885"
         style="font-style:normal;font-variant:normal;font-weight:300;font-stretch:normal;font-family:'Open Sans';-inkscape-font-specification:'Open Sans Light';fill:#000000;stroke-width:0.9375"
         d="m 1907.9763,783.18908 v 16.17044 q 0,3.76698 1.5849,5.48969 1.5849,1.69973 4.9154,1.69973 4.4561,0 6.5463,-2.251 2.1132,-2.251 2.1132,-7.32723 v -13.78163 h 2.251 v 24.96772 h -1.9294 l -0.4135,-3.44541 h -0.1378 q -2.4348,3.9048 -8.6595,3.9048 -8.5216,0 -8.5216,-9.11885 v -16.30826 z" />
      <path
         id="path887"
         style="font-style:normal;font-variant:normal;font-weight:300;font-stretch:normal;font-family:'Open Sans';-inkscape-font-specification:'Open Sans Light';fill:#000000;stroke-width:0.9375"
         d="m 1949.2058,801.65646 q 0,3.35353 -2.5496,5.16811 -2.5496,1.79162 -7.2354,1.79162 -5.0073,0 -7.9474,-1.53895 v -2.45773 q 3.767,1.88349 7.9474,1.88349 3.6981,0 5.6046,-1.21737 1.9294,-1.24035 1.9294,-3.28463 0,-1.88349 -1.5389,-3.16977 -1.516,-1.28629 -5.0074,-2.52663 -3.744,-1.3552 -5.26,-2.31991 -1.5159,-0.98769 -2.2969,-2.20506 -0.758,-1.24035 -0.758,-3.00899 0,-2.80227 2.3429,-4.4331 2.3658,-1.63082 6.5922,-1.63082 4.0426,0 7.6718,1.51598 l -0.8499,2.06724 q -3.6751,-1.51598 -6.8219,-1.51598 -3.0549,0 -4.8465,1.01066 -1.7917,1.01065 -1.7917,2.80226 0,1.9524 1.3782,3.12384 1.4011,1.17144 5.4438,2.61851 3.3765,1.21738 4.9154,2.20506 1.539,0.96471 2.2969,2.20506 0.781,1.24035 0.781,2.91711 z" />
      <path
         id="path889"
         style="font-style:normal;font-variant:normal;font-weight:300;font-stretch:normal;font-family:'Open Sans';-inkscape-font-specification:'Open Sans Light';fill:#000000;stroke-width:0.9375"
         d="m 1962.2519,806.59488 q 2.1591,0 3.7669,-0.36751 v 1.83755 q -1.6538,0.55127 -3.8129,0.55127 -3.3076,0 -4.8925,-1.76865 -1.5619,-1.76864 -1.5619,-5.55859 v -16.12451 h -3.698 v -1.33222 l 3.698,-1.03362 1.1485,-5.65047 h 1.1714 v 6.04095 h 7.3273 v 1.97536 h -7.3273 v 15.80294 q 0,2.87117 1.0107,4.24934 1.0106,1.37816 3.1698,1.37816 z" />
      <path
         id="path891"
         style="font-style:normal;font-variant:normal;font-weight:300;font-stretch:normal;font-family:'Open Sans';-inkscape-font-specification:'Open Sans Light';fill:#000000;stroke-width:0.9375"
         d="m 1981.5226,808.61619 q -5.4437,0 -8.4986,-3.35353 -3.032,-3.35353 -3.032,-9.39448 0,-5.97204 2.9401,-9.55527 2.9401,-3.60619 7.9244,-3.60619 4.4101,0 6.9597,3.0779 2.5496,3.07789 2.5496,8.36085 v 1.83755 h -17.985 q 0.046,5.14515 2.3888,7.85553 2.3659,2.71039 6.753,2.71039 2.1362,0 3.744,-0.2986 1.6309,-0.2986 4.1116,-1.28629 v 2.06725 q -2.1132,0.91877 -3.9048,1.24035 -1.7917,0.34454 -3.9508,0.34454 z m -0.6661,-23.88817 q -3.6062,0 -5.7883,2.38882 -2.1821,2.36585 -2.5496,6.84488 h 15.4355 q 0,-4.34122 -1.8835,-6.77597 -1.8835,-2.45773 -5.2141,-2.45773 z" />
      <path
         id="path893"
         style="font-style:normal;font-variant:normal;font-weight:300;font-stretch:normal;font-family:'Open Sans';-inkscape-font-specification:'Open Sans Light';fill:#000000;stroke-width:0.9375"
         d="m 2007.064,782.70672 q 1.5849,0 3.3995,0.32157 l -0.4364,2.18209 q -1.5619,-0.39048 -3.2387,-0.39048 -3.1927,0 -5.237,2.71039 -2.0443,2.71039 -2.0443,6.84488 v 13.78163 h -2.274 v -24.96772 h 1.9295 l 0.2297,4.502 h 0.1607 q 1.539,-2.75633 3.2847,-3.85886 1.7456,-1.1255 4.2263,-1.1255 z" />
    </g>
  </g>
</svg>
